<svg width="35" height="35" viewBox="0 0 35 35" fill="none" xmlns="http://www.w3.org/2000/svg">
<path d="M34.7092 22.3725C34.7049 21.2933 34.3535 20.24 33.7003 19.349C33.0472 18.458 32.1223 17.7701 31.0454 17.3744L34.6513 4.78921C34.7266 4.52118 34.7345 4.24054 34.6743 3.96921C34.6141 3.69788 34.4874 3.4432 34.3042 3.22505C34.1169 3.02064 33.8828 2.85799 33.6192 2.74909C33.3556 2.64019 33.0691 2.5878 32.7809 2.59579H6.36335L5.72701 0.330452C5.61638 -0.0526578 5.37293 -0.390887 5.03461 -0.631533C4.69629 -0.872179 4.2821 -1.00172 3.85657 -0.999983H0V2.59579H2.37179L7.15394 19.2442C7.26694 19.6364 7.51904 19.9814 7.86919 20.223C8.21934 20.4646 8.6469 20.5885 9.08223 20.5746H28.9243C29.4357 20.5746 29.9262 20.7641 30.2878 21.1012C30.6494 21.4384 30.8526 21.8957 30.8526 22.3725C30.8526 22.8493 30.6494 23.3066 30.2878 23.6438C29.9262 23.981 29.4357 24.1704 28.9243 24.1704H3.85657C3.34516 24.1704 2.85469 24.3598 2.49307 24.697C2.13145 25.0342 1.92829 25.4915 1.92829 25.9683C1.92829 26.4451 2.13145 26.9024 2.49307 27.2396C2.85469 27.5768 3.34516 27.7662 3.85657 27.7662H6.13195C5.81482 28.5808 5.71291 29.4548 5.83486 30.314C5.95681 31.1732 6.29903 31.9923 6.83253 32.702C7.36604 33.4117 8.07512 33.9911 8.89972 34.3911C9.72433 34.7912 10.6402 35 11.5697 35C12.4993 35 13.4151 34.7912 14.2397 34.3911C15.0643 33.9911 15.7734 33.4117 16.3069 32.702C16.8404 31.9923 17.1826 31.1732 17.3046 30.314C17.4265 29.4548 17.3246 28.5808 17.0075 27.7662H21.5582C21.2696 28.508 21.159 29.2998 21.2343 30.0858C21.3096 30.8719 21.569 31.6329 21.9941 32.3152C22.4193 32.9976 22.9998 33.5847 23.6949 34.035C24.3899 34.4854 25.1824 34.788 26.0166 34.9217C26.8507 35.0553 27.7062 35.0166 28.5226 34.8084C29.3389 34.6002 30.0964 34.2275 30.7414 33.7166C31.3865 33.2057 31.9034 32.569 32.2558 31.8515C32.6082 31.134 32.7874 30.3532 32.7809 29.5641C32.7773 28.6352 32.5113 27.7236 32.0096 26.9212C32.8341 26.4364 33.514 25.7653 33.9859 24.9701C34.4579 24.1749 34.7066 23.2814 34.7092 22.3725ZM27.1696 16.9789H10.6056L7.40462 6.19156H30.2741L27.1696 16.9789ZM11.5697 31.3619C11.1883 31.3619 10.8155 31.2565 10.4984 31.0589C10.1813 30.8614 9.93416 30.5806 9.78822 30.2521C9.64227 29.9236 9.60408 29.5621 9.67848 29.2133C9.75289 28.8645 9.93654 28.5442 10.2062 28.2928C10.4759 28.0413 10.8195 27.8701 11.1935 27.8007C11.5676 27.7313 11.9553 27.7669 12.3076 27.903C12.66 28.0391 12.9611 28.2695 13.173 28.5652C13.3849 28.8609 13.498 29.2085 13.498 29.5641C13.498 30.0409 13.2948 30.4982 12.9332 30.8354C12.5716 31.1725 12.0811 31.3619 11.5697 31.3619ZM26.996 31.3619C26.6146 31.3619 26.2418 31.2565 25.9247 31.0589C25.6076 30.8614 25.3605 30.5806 25.2145 30.2521C25.0686 29.9236 25.0304 29.5621 25.1048 29.2133C25.1792 28.8645 25.3628 28.5442 25.6325 28.2928C25.9022 28.0413 26.2458 27.8701 26.6198 27.8007C26.9939 27.7313 27.3816 27.7669 27.7339 27.903C28.0863 28.0391 28.3874 28.2695 28.5993 28.5652C28.8112 28.8609 28.9243 29.2085 28.9243 29.5641C28.9243 30.0409 28.7211 30.4982 28.3595 30.8354C27.9979 31.1725 27.5074 31.3619 26.996 31.3619Z" fill="white"/>
</svg>
