<svg width="16" height="8" viewBox="0 0 16 8" fill="none" xmlns="http://www.w3.org/2000/svg">
<path d="M15.5595 0.372418C15.2805 0.133886 14.9031 0 14.5097 0C14.1164 0 13.739 0.133886 13.46 0.372418L8.11459 4.90609L2.84361 0.372418C2.56463 0.133886 2.18724 0 1.79388 0C1.40051 0 1.02313 0.133886 0.744148 0.372418C0.604588 0.491475 0.493817 0.633122 0.418223 0.789187C0.34263 0.945252 0.303711 1.11265 0.303711 1.28171C0.303711 1.45078 0.34263 1.61818 0.418223 1.77424C0.493817 1.93031 0.604588 2.07195 0.744148 2.19101L7.05741 7.62117C7.19583 7.74121 7.36051 7.83649 7.54196 7.9015C7.72341 7.96652 7.91802 8 8.11459 8C8.31115 8 8.50577 7.96652 8.68721 7.9015C8.86866 7.83649 9.03334 7.74121 9.17176 7.62117L15.5595 2.19101C15.699 2.07195 15.8098 1.93031 15.8854 1.77424C15.961 1.61818 15.9999 1.45078 15.9999 1.28171C15.9999 1.11265 15.961 0.945252 15.8854 0.789187C15.8098 0.633122 15.699 0.491475 15.5595 0.372418Z" fill="white"/>
</svg>
