<svg width="28" height="28" viewBox="0 0 28 28" fill="none" xmlns="http://www.w3.org/2000/svg">
<path d="M27.0108 25.0276L22.1116 20.0982C24.0133 17.693 24.9342 14.6401 24.6851 11.5673C24.4359 8.49445 23.0355 5.63524 20.7719 3.57758C18.5082 1.51991 15.5534 0.42018 12.515 0.504515C9.47654 0.588851 6.58543 1.85084 4.43612 4.031C2.28681 6.21115 1.04267 9.14376 0.95953 12.2258C0.876387 15.3079 1.96056 18.3051 3.98911 20.6012C6.01767 22.8973 8.83642 24.3178 11.8658 24.5706C14.8951 24.8233 17.9048 23.8891 20.276 21.9601L25.1356 26.8895C25.2584 27.015 25.4044 27.1147 25.5654 27.1827C25.7263 27.2507 25.8989 27.2857 26.0732 27.2857C26.2475 27.2857 26.4202 27.2507 26.5811 27.1827C26.742 27.1147 26.8881 27.015 27.0108 26.8895C27.2488 26.6397 27.3819 26.3059 27.3819 25.9585C27.3819 25.6112 27.2488 25.2774 27.0108 25.0276ZM12.8677 21.9601C11.0394 21.9601 9.25219 21.4102 7.73205 20.3799C6.2119 19.3496 5.02708 17.8851 4.32744 16.1718C3.62779 14.4585 3.44473 12.5732 3.80141 10.7543C4.15808 8.93541 5.03848 7.26467 6.33126 5.95334C7.62404 4.642 9.27114 3.74897 11.0643 3.38718C12.8574 3.02538 14.7161 3.21107 16.4052 3.92076C18.0943 4.63045 19.538 5.83226 20.5537 7.37423C21.5694 8.91619 22.1116 10.7291 22.1116 12.5836C22.1116 15.0704 21.1376 17.4553 19.4041 19.2138C17.6705 20.9722 15.3193 21.9601 12.8677 21.9601Z" fill="white" fill-opacity="0.71"/>
</svg>
